<mxfile host="65bd71144e">
    <diagram id="3Tj04b1a-0Rv68_8_BNj" name="Page-1">
        <mxGraphModel dx="2883" dy="2450" grid="1" gridSize="10" guides="1" tooltips="1" connect="1" arrows="1" fold="1" page="1" pageScale="1" pageWidth="850" pageHeight="1100" math="0" shadow="0">
            <root>
                <mxCell id="0"/>
                <mxCell id="1" parent="0"/>
                <mxCell id="5" value="" style="rounded=1;whiteSpace=wrap;html=1;fontSize=29;verticalAlign=top;arcSize=6;shadow=1;" vertex="1" parent="1">
                    <mxGeometry x="30" y="310" width="340.62" height="190" as="geometry"/>
                </mxCell>
                <mxCell id="7" value="" style="rounded=0;whiteSpace=wrap;html=1;fontSize=21;verticalAlign=bottom;fillColor=#1ba1e2;strokeColor=#006EAF;fontColor=#ffffff;shadow=1;" vertex="1" parent="1">
                    <mxGeometry x="78.75" y="400" width="30" height="30" as="geometry"/>
                </mxCell>
                <mxCell id="10" value="" style="rounded=0;whiteSpace=wrap;html=1;fontSize=21;verticalAlign=bottom;fillColor=#60a917;strokeColor=#2D7600;fontColor=#ffffff;shadow=1;" vertex="1" parent="1">
                    <mxGeometry x="158.75" y="370" width="30" height="60" as="geometry"/>
                </mxCell>
                <mxCell id="13" value="p" style="rounded=0;whiteSpace=wrap;html=1;fontSize=21;verticalAlign=bottom;fillColor=#1ba1e2;strokeColor=#006EAF;fontColor=#ffffff;shadow=1;" vertex="1" parent="1">
                    <mxGeometry x="198.75" y="400" width="30" height="30" as="geometry"/>
                </mxCell>
                <mxCell id="84" style="edgeStyle=orthogonalEdgeStyle;html=1;exitX=0.5;exitY=1;exitDx=0;exitDy=0;entryX=0.5;entryY=1;entryDx=0;entryDy=0;endArrow=open;endFill=0;endSize=14;" edge="1" parent="1" source="92" target="33">
                    <mxGeometry relative="1" as="geometry">
                        <mxPoint x="213.75" y="500" as="sourcePoint"/>
                        <Array as="points">
                            <mxPoint x="135" y="530"/>
                            <mxPoint x="476" y="530"/>
                        </Array>
                    </mxGeometry>
                </mxCell>
                <mxCell id="16" value="" style="rounded=0;whiteSpace=wrap;html=1;fontSize=21;verticalAlign=bottom;fillColor=#60a917;strokeColor=#2D7600;fontColor=#ffffff;shadow=1;" vertex="1" parent="1">
                    <mxGeometry x="238.75" y="370" width="30" height="60" as="geometry"/>
                </mxCell>
                <mxCell id="18" value="" style="rounded=0;whiteSpace=wrap;html=1;fontSize=21;verticalAlign=bottom;fillColor=#1ba1e2;strokeColor=#006EAF;fontColor=#ffffff;shadow=1;" vertex="1" parent="1">
                    <mxGeometry x="280.6200000000001" y="400" width="30" height="30" as="geometry"/>
                </mxCell>
                <mxCell id="20" value="..." style="text;html=1;strokeColor=none;fillColor=none;align=center;verticalAlign=bottom;whiteSpace=wrap;rounded=0;fontSize=40;fontStyle=1;shadow=1;" vertex="1" parent="1">
                    <mxGeometry x="305.0000000000001" y="385" width="60" height="30" as="geometry"/>
                </mxCell>
                <mxCell id="22" value="..." style="text;html=1;strokeColor=none;fillColor=none;align=center;verticalAlign=bottom;whiteSpace=wrap;rounded=0;fontSize=40;fontStyle=1;shadow=1;" vertex="1" parent="1">
                    <mxGeometry x="30" y="385" width="60" height="30" as="geometry"/>
                </mxCell>
                <mxCell id="24" value="" style="rounded=0;whiteSpace=wrap;html=1;fontSize=21;verticalAlign=bottom;fillColor=#60a917;strokeColor=#2D7600;fontColor=#ffffff;shadow=1;" vertex="1" parent="1">
                    <mxGeometry x="120" y="370" width="30" height="60" as="geometry"/>
                </mxCell>
                <mxCell id="26" value="" style="rounded=0;whiteSpace=wrap;html=1;fontSize=21;verticalAlign=bottom;fillColor=#fa6800;strokeColor=#C73500;fontColor=#000000;shadow=1;" vertex="1" parent="1">
                    <mxGeometry x="78.75" y="370" width="30" height="30" as="geometry"/>
                </mxCell>
                <mxCell id="27" value="pid" style="rounded=0;whiteSpace=wrap;html=1;fontSize=21;verticalAlign=bottom;fillColor=#fa6800;strokeColor=#C73500;fontColor=#000000;shadow=1;" vertex="1" parent="1">
                    <mxGeometry x="198.75" y="370" width="30" height="30" as="geometry"/>
                </mxCell>
                <mxCell id="28" value="" style="rounded=0;whiteSpace=wrap;html=1;fontSize=21;verticalAlign=bottom;fillColor=#fa6800;strokeColor=#C73500;fontColor=#000000;shadow=1;" vertex="1" parent="1">
                    <mxGeometry x="280.62" y="370" width="30" height="30" as="geometry"/>
                </mxCell>
                <mxCell id="31" style="edgeStyle=orthogonalEdgeStyle;html=1;exitX=1;exitY=0.5;exitDx=0;exitDy=0;fontSize=23;endArrow=open;endFill=0;endSize=14;entryX=0.5;entryY=0;entryDx=0;entryDy=0;" edge="1" parent="1" source="32" target="47">
                    <mxGeometry relative="1" as="geometry">
                        <mxPoint x="721.2499999999999" y="250.35294117647072" as="targetPoint"/>
                    </mxGeometry>
                </mxCell>
                <mxCell id="32" value="d" style="rounded=0;whiteSpace=wrap;html=1;fontSize=23;" vertex="1" parent="1">
                    <mxGeometry x="531.2499999999999" y="220" width="110" height="40" as="geometry"/>
                </mxCell>
                <mxCell id="33" value="f" style="rounded=0;whiteSpace=wrap;html=1;fontSize=23;" vertex="1" parent="1">
                    <mxGeometry x="421.25" y="220" width="110" height="40" as="geometry"/>
                </mxCell>
                <mxCell id="46" value="" style="rounded=0;whiteSpace=wrap;html=1;fontSize=23;fillColor=#1ba1e2;strokeColor=#006EAF;fontColor=#ffffff;" vertex="1" parent="1">
                    <mxGeometry x="641.2499999999999" y="290" width="390" height="120" as="geometry"/>
                </mxCell>
                <mxCell id="47" value="" style="rounded=0;whiteSpace=wrap;html=1;fontSize=23;fillColor=#a20025;strokeColor=#6F0000;fontColor=#ffffff;" vertex="1" parent="1">
                    <mxGeometry x="736.2499999999999" y="290" width="10" height="120" as="geometry"/>
                </mxCell>
                <mxCell id="48" value="" style="endArrow=none;html=1;fontSize=23;endSize=14;entryX=0;entryY=0;entryDx=0;entryDy=0;exitX=0;exitY=0;exitDx=0;exitDy=0;" edge="1" parent="1" source="46" target="61">
                    <mxGeometry width="50" height="50" relative="1" as="geometry">
                        <mxPoint x="751.2499999999999" y="260" as="sourcePoint"/>
                        <mxPoint x="801.2499999999999" y="210" as="targetPoint"/>
                    </mxGeometry>
                </mxCell>
                <mxCell id="49" value="" style="endArrow=none;html=1;fontSize=23;endSize=14;entryX=0;entryY=1;entryDx=0;entryDy=0;exitX=1;exitY=0;exitDx=0;exitDy=0;" edge="1" parent="1" source="46" target="61">
                    <mxGeometry width="50" height="50" relative="1" as="geometry">
                        <mxPoint x="711.2499999999999" y="300" as="sourcePoint"/>
                        <mxPoint x="791.2499999999999" y="180" as="targetPoint"/>
                    </mxGeometry>
                </mxCell>
                <mxCell id="50" value="" style="rounded=0;whiteSpace=wrap;html=1;fontSize=23;rotation=-90;fillColor=#1ba1e2;strokeColor=#006EAF;fontColor=#ffffff;" vertex="1" parent="1">
                    <mxGeometry x="301.25" y="90" width="120" height="40" as="geometry"/>
                </mxCell>
                <mxCell id="51" value="" style="rounded=0;whiteSpace=wrap;html=1;fontSize=23;rotation=-90;fillColor=#60a917;strokeColor=#2D7600;fontColor=#ffffff;" vertex="1" parent="1">
                    <mxGeometry x="341.25" y="90" width="120" height="40" as="geometry"/>
                </mxCell>
                <mxCell id="52" value="" style="rounded=0;whiteSpace=wrap;html=1;fontSize=23;rotation=-90;fillColor=#60a917;strokeColor=#2D7600;fontColor=#ffffff;" vertex="1" parent="1">
                    <mxGeometry x="381.25" y="90" width="120" height="40" as="geometry"/>
                </mxCell>
                <mxCell id="53" value="" style="rounded=0;whiteSpace=wrap;html=1;fontSize=23;rotation=-90;fillColor=#1ba1e2;strokeColor=#006EAF;fontColor=#ffffff;" vertex="1" parent="1">
                    <mxGeometry x="421.25" y="90" width="120" height="40" as="geometry"/>
                </mxCell>
                <mxCell id="54" value="" style="rounded=0;whiteSpace=wrap;html=1;fontSize=23;rotation=-90;fillColor=#1ba1e2;strokeColor=#006EAF;fontColor=#ffffff;" vertex="1" parent="1">
                    <mxGeometry x="461.25" y="90" width="120" height="40" as="geometry"/>
                </mxCell>
                <mxCell id="55" value="" style="rounded=0;whiteSpace=wrap;html=1;fontSize=23;rotation=-90;fillColor=#60a917;strokeColor=#2D7600;fontColor=#ffffff;" vertex="1" parent="1">
                    <mxGeometry x="501.2499999999999" y="90" width="120" height="40" as="geometry"/>
                </mxCell>
                <mxCell id="56" value="" style="rounded=0;whiteSpace=wrap;html=1;fontSize=23;rotation=-90;fillColor=#60a917;strokeColor=#2D7600;fontColor=#ffffff;" vertex="1" parent="1">
                    <mxGeometry x="541.2499999999999" y="90" width="120" height="40" as="geometry"/>
                </mxCell>
                <mxCell id="57" value="" style="rounded=0;whiteSpace=wrap;html=1;fontSize=23;rotation=-90;fillColor=#1ba1e2;strokeColor=#006EAF;fontColor=#ffffff;" vertex="1" parent="1">
                    <mxGeometry x="581.2499999999999" y="90" width="120" height="40" as="geometry"/>
                </mxCell>
                <mxCell id="58" value="" style="rounded=0;whiteSpace=wrap;html=1;fontSize=23;rotation=-90;fillColor=#60a917;strokeColor=#2D7600;fontColor=#ffffff;" vertex="1" parent="1">
                    <mxGeometry x="621.2499999999999" y="90" width="120" height="40" as="geometry"/>
                </mxCell>
                <mxCell id="59" value="" style="rounded=0;whiteSpace=wrap;html=1;fontSize=23;rotation=-90;fillColor=#1ba1e2;strokeColor=#006EAF;fontColor=#ffffff;" vertex="1" parent="1">
                    <mxGeometry x="661.2499999999999" y="90" width="120" height="40" as="geometry"/>
                </mxCell>
                <mxCell id="60" value="" style="rounded=0;whiteSpace=wrap;html=1;fontSize=23;rotation=-90;fillColor=#1ba1e2;strokeColor=#006EAF;fontColor=#ffffff;" vertex="1" parent="1">
                    <mxGeometry x="701.2499999999999" y="90" width="120" height="40" as="geometry"/>
                </mxCell>
                <mxCell id="61" value="" style="rounded=0;whiteSpace=wrap;html=1;fontSize=23;rotation=-90;fillColor=#1ba1e2;strokeColor=#006EAF;fontColor=#ffffff;" vertex="1" parent="1">
                    <mxGeometry x="741.2499999999999" y="90" width="120" height="40" as="geometry"/>
                </mxCell>
                <mxCell id="62" value="" style="rounded=0;whiteSpace=wrap;html=1;fontSize=23;rotation=-90;fillColor=#60a917;strokeColor=#2D7600;fontColor=#ffffff;" vertex="1" parent="1">
                    <mxGeometry x="781.2499999999999" y="90" width="120" height="40" as="geometry"/>
                </mxCell>
                <mxCell id="63" value="" style="rounded=0;whiteSpace=wrap;html=1;fontSize=23;rotation=-90;fillColor=#1ba1e2;strokeColor=#006EAF;fontColor=#ffffff;" vertex="1" parent="1">
                    <mxGeometry x="821.2499999999999" y="90" width="120" height="40" as="geometry"/>
                </mxCell>
                <mxCell id="64" value="" style="rounded=0;whiteSpace=wrap;html=1;fontSize=23;rotation=-90;fillColor=#60a917;strokeColor=#2D7600;fontColor=#ffffff;" vertex="1" parent="1">
                    <mxGeometry x="861.2499999999999" y="90" width="120" height="40" as="geometry"/>
                </mxCell>
                <mxCell id="65" value="" style="rounded=0;whiteSpace=wrap;html=1;fontSize=23;rotation=-90;fillColor=#60a917;strokeColor=#2D7600;fontColor=#ffffff;" vertex="1" parent="1">
                    <mxGeometry x="901.25" y="90" width="120" height="40" as="geometry"/>
                </mxCell>
                <mxCell id="66" value="" style="endArrow=none;html=1;fontSize=23;endSize=14;entryX=1;entryY=0.25;entryDx=0;entryDy=0;exitX=0;exitY=0.25;exitDx=0;exitDy=0;fillColor=#a20025;strokeColor=#6F0000;" edge="1" parent="1" source="61" target="61">
                    <mxGeometry width="50" height="50" relative="1" as="geometry">
                        <mxPoint x="711.2499999999999" y="300" as="sourcePoint"/>
                        <mxPoint x="791.2499999999999" y="180" as="targetPoint"/>
                    </mxGeometry>
                </mxCell>
                <mxCell id="67" value="..." style="text;html=1;strokeColor=none;fillColor=none;align=center;verticalAlign=bottom;whiteSpace=wrap;rounded=0;fontSize=40;fontStyle=1" vertex="1" parent="1">
                    <mxGeometry x="290" y="110" width="60" height="30" as="geometry"/>
                </mxCell>
                <mxCell id="68" value="..." style="text;html=1;strokeColor=none;fillColor=none;align=center;verticalAlign=bottom;whiteSpace=wrap;rounded=0;fontSize=40;fontStyle=1" vertex="1" parent="1">
                    <mxGeometry x="976.25" y="105" width="60" height="30" as="geometry"/>
                </mxCell>
                <mxCell id="69" value="f" style="text;html=1;strokeColor=none;fillColor=none;align=center;verticalAlign=middle;whiteSpace=wrap;rounded=0;fontSize=32;fontStyle=1" vertex="1" parent="1">
                    <mxGeometry x="764.9999999999999" y="90" width="72.5" height="50" as="geometry"/>
                </mxCell>
                <mxCell id="70" value="Frame (f)" style="text;html=1;strokeColor=none;fillColor=none;align=center;verticalAlign=middle;whiteSpace=wrap;rounded=0;fontSize=21;" vertex="1" parent="1">
                    <mxGeometry x="776.2499999999999" y="250" width="120" height="50" as="geometry"/>
                </mxCell>
                <mxCell id="72" style="edgeStyle=orthogonalEdgeStyle;html=1;exitX=0.5;exitY=0;exitDx=0;exitDy=0;entryX=0.5;entryY=1;entryDx=0;entryDy=0;fontSize=23;endArrow=open;endFill=0;endSize=14;" edge="1" parent="1" source="73" target="47">
                    <mxGeometry relative="1" as="geometry"/>
                </mxCell>
                <mxCell id="73" value="offset (d)" style="text;html=1;strokeColor=none;fillColor=none;align=center;verticalAlign=middle;whiteSpace=wrap;rounded=0;fontSize=21;" vertex="1" parent="1">
                    <mxGeometry x="681.2499999999999" y="440" width="120" height="30" as="geometry"/>
                </mxCell>
                <mxCell id="74" value="Physical Memory" style="text;html=1;strokeColor=none;fillColor=none;align=center;verticalAlign=middle;whiteSpace=wrap;rounded=0;fontSize=21;" vertex="1" parent="1">
                    <mxGeometry x="341.25" y="10" width="640" height="50" as="geometry"/>
                </mxCell>
                <mxCell id="93" style="edgeStyle=orthogonalEdgeStyle;html=1;exitX=0;exitY=0.5;exitDx=0;exitDy=0;entryX=0;entryY=0.5;entryDx=0;entryDy=0;endArrow=open;endFill=0;endSize=14;" edge="1" parent="1" source="76" target="80">
                    <mxGeometry relative="1" as="geometry">
                        <Array as="points">
                            <mxPoint x="10" y="95"/>
                            <mxPoint x="10" y="240"/>
                        </Array>
                    </mxGeometry>
                </mxCell>
                <mxCell id="76" value="CPU" style="rounded=1;whiteSpace=wrap;html=1;fontSize=23;" vertex="1" parent="1">
                    <mxGeometry x="50" y="55" width="100" height="80" as="geometry"/>
                </mxCell>
                <mxCell id="83" style="edgeStyle=orthogonalEdgeStyle;html=1;exitX=0.5;exitY=1;exitDx=0;exitDy=0;entryX=0.5;entryY=0;entryDx=0;entryDy=0;endArrow=open;endFill=0;endSize=14;" edge="1" parent="1" source="78" target="27">
                    <mxGeometry relative="1" as="geometry">
                        <Array as="points">
                            <mxPoint x="214" y="260"/>
                        </Array>
                    </mxGeometry>
                </mxCell>
                <mxCell id="85" style="edgeStyle=orthogonalEdgeStyle;html=1;exitX=0.5;exitY=0;exitDx=0;exitDy=0;entryX=0.5;entryY=0;entryDx=0;entryDy=0;endArrow=open;endFill=0;endSize=14;" edge="1" parent="1" source="79" target="32">
                    <mxGeometry relative="1" as="geometry">
                        <Array as="points">
                            <mxPoint x="325" y="190"/>
                            <mxPoint x="586" y="190"/>
                        </Array>
                    </mxGeometry>
                </mxCell>
                <mxCell id="82" style="edgeStyle=orthogonalEdgeStyle;html=1;exitX=0.5;exitY=1;exitDx=0;exitDy=0;entryX=0.5;entryY=0;entryDx=0;entryDy=0;endArrow=open;endFill=0;endSize=14;" edge="1" parent="1" source="80" target="27">
                    <mxGeometry relative="1" as="geometry">
                        <Array as="points">
                            <mxPoint x="105" y="290"/>
                            <mxPoint x="214" y="290"/>
                        </Array>
                    </mxGeometry>
                </mxCell>
                <mxCell id="86" value="" style="group" vertex="1" connectable="0" parent="1">
                    <mxGeometry x="50" y="220" width="330" height="40" as="geometry"/>
                </mxCell>
                <mxCell id="78" value="p" style="rounded=0;whiteSpace=wrap;html=1;fontSize=23;" vertex="1" parent="86">
                    <mxGeometry x="110" width="110" height="40" as="geometry"/>
                </mxCell>
                <mxCell id="79" value="d" style="rounded=0;whiteSpace=wrap;html=1;fontSize=23;" vertex="1" parent="86">
                    <mxGeometry x="220" width="110" height="40" as="geometry"/>
                </mxCell>
                <mxCell id="80" value="pid" style="rounded=0;whiteSpace=wrap;html=1;fontSize=23;" vertex="1" parent="86">
                    <mxGeometry width="110" height="40" as="geometry"/>
                </mxCell>
                <mxCell id="88" value="&lt;font style=&quot;font-size: 21px&quot;&gt;search&lt;/font&gt;" style="text;html=1;strokeColor=none;fillColor=none;align=center;verticalAlign=middle;whiteSpace=wrap;rounded=0;" vertex="1" parent="1">
                    <mxGeometry x="78.75" y="320" width="121.25" height="30" as="geometry"/>
                </mxCell>
                <mxCell id="90" value="" style="endArrow=open;html=1;endSize=14;entryX=1;entryY=1;entryDx=0;entryDy=0;exitX=0;exitY=1;exitDx=0;exitDy=0;endFill=0;" edge="1" parent="1" source="88" target="88">
                    <mxGeometry width="50" height="50" relative="1" as="geometry">
                        <mxPoint x="-51.25" y="380" as="sourcePoint"/>
                        <mxPoint x="-1.25" y="330" as="targetPoint"/>
                    </mxGeometry>
                </mxCell>
                <mxCell id="91" value="" style="shape=curlyBracket;whiteSpace=wrap;html=1;rounded=1;flipH=1;rotation=90;" vertex="1" parent="1">
                    <mxGeometry x="125" y="350" width="20" height="190" as="geometry"/>
                </mxCell>
                <mxCell id="92" value="&lt;font style=&quot;font-size: 21px&quot;&gt;f&lt;/font&gt;" style="text;html=1;strokeColor=none;fillColor=none;align=center;verticalAlign=middle;whiteSpace=wrap;rounded=0;" vertex="1" parent="1">
                    <mxGeometry x="74.38" y="455" width="121.25" height="30" as="geometry"/>
                </mxCell>
            </root>
        </mxGraphModel>
    </diagram>
</mxfile>